<svg xmlns="http://www.w3.org/2000/svg" width="24" height="24" viewBox="0 0 24 24">
  <g id="Group_9" data-name="Group 9" transform="translate(-159 -39)">
    <g id="Rectangle_24" data-name="Rectangle 24" transform="translate(165 47)" fill="rgba(255,255,255,0)" stroke="#f57dff" stroke-width="1">
      <rect width="16" height="16" rx="3" stroke="none"/>
      <rect x="0.5" y="0.5" width="15" height="15" rx="2.5" fill="none"/>
    </g>
    <g id="Rectangle_22" data-name="Rectangle 22" transform="translate(159 44)" fill="rgba(100,255,218,0.5)" stroke="#64ffda" stroke-width="1">
      <rect width="16" height="16" rx="3" stroke="none"/>
      <rect x="0.5" y="0.5" width="15" height="15" rx="2.5" fill="none"/>
    </g>
    <g id="Rectangle_23" data-name="Rectangle 23" transform="translate(167 39)" fill="rgba(255,255,255,0)" stroke="#ffd34a" stroke-width="1">
      <rect width="16" height="16" rx="3" stroke="none"/>
      <rect x="0.5" y="0.5" width="15" height="15" rx="2.5" fill="none"/>
    </g>
    <g id="Ellipse_8" data-name="Ellipse 8" transform="translate(178 41)" fill="none" stroke="#64ffda" stroke-width="0.5">
      <circle cx="1.5" cy="1.5" r="1.5" stroke="none"/>
      <circle cx="1.5" cy="1.5" r="1.25" fill="none"/>
    </g>
    <g id="Ellipse_9" data-name="Ellipse 9" transform="translate(176 58)" fill="none" stroke="#ffd34a" stroke-width="0.5">
      <circle cx="1.5" cy="1.5" r="1.5" stroke="none"/>
      <circle cx="1.5" cy="1.5" r="1.25" fill="none"/>
    </g>
    <g id="Ellipse_10" data-name="Ellipse 10" transform="translate(161 47)" fill="rgba(245,125,255,0.5)" stroke="#f57dff" stroke-width="0.5">
      <circle cx="1.5" cy="1.5" r="1.5" stroke="none"/>
      <circle cx="1.5" cy="1.5" r="1.25" fill="none"/>
    </g>
    <g id="Ellipse_11" data-name="Ellipse 11" transform="translate(161 54)" fill="rgba(245,125,255,0.5)" stroke="#f57dff" stroke-width="0.5">
      <circle cx="1.5" cy="1.5" r="1.5" stroke="none"/>
      <circle cx="1.5" cy="1.5" r="1.25" fill="none"/>
    </g>
  </g>
</svg>
